<svg width="73" height="83" viewBox="0 0 73 83" fill="none" xmlns="http://www.w3.org/2000/svg">
<path fill-rule="evenodd" clip-rule="evenodd" d="M72.625 23.3438V72.625C72.625 75.3766 71.5319 78.0155 69.5862 79.9612C67.6405 81.9069 65.0016 83 62.25 83V77.8125C63.6258 77.8125 64.9453 77.266 65.9181 76.2931C66.891 75.3203 67.4375 74.0008 67.4375 72.625V23.3438H57.0625C54.9988 23.3438 53.0196 22.5239 51.5603 21.0647C50.1011 19.6054 49.2812 17.6262 49.2812 15.5625V5.1875H20.75C19.3742 5.1875 18.0547 5.73404 17.0819 6.70688C16.109 7.67973 15.5625 8.99919 15.5625 10.375V57.0625H10.375V10.375C10.375 7.62338 11.4681 4.98446 13.4138 3.03877C15.3595 1.09308 17.9984 0 20.75 0L49.2812 0L72.625 23.3438ZM31.9602 70.8924V73.6003C31.9602 74.9282 31.7579 76.0384 31.3533 76.9254C31.0089 77.7461 30.4272 78.4452 29.6829 78.933C28.9496 79.3755 28.1063 79.6021 27.2499 79.5866C26.3903 79.6024 25.5436 79.3759 24.8066 78.933C24.0684 78.4434 23.4909 77.7468 23.1466 76.9306C22.7103 75.8762 22.5034 74.7409 22.5397 73.6003V70.8924C22.5397 69.5592 22.7472 68.4491 23.1466 67.5672C23.4901 66.7491 24.0676 66.0506 24.8066 65.5596C25.5402 65.1073 26.3882 64.8751 27.2499 64.8904C28.1629 64.8904 28.9722 65.1135 29.6829 65.5648C30.4264 66.0513 31.008 66.7484 31.3533 67.5672C31.7579 68.4491 31.9602 69.5592 31.9602 70.8924ZM36.1258 73.5847V70.9235C36.1258 68.9678 35.773 67.2923 35.0623 65.8812C34.3962 64.509 33.3312 63.37 32.0069 62.6131C30.6893 61.8506 29.1019 61.4719 27.2499 61.4719C25.4084 61.4719 23.8158 61.8506 22.4774 62.6131C21.1515 63.3609 20.0855 64.4957 19.422 65.8657C18.7165 67.2715 18.3586 68.9574 18.3586 70.9235V73.5847C18.3586 75.53 18.7165 77.2159 19.422 78.6321C20.1327 80.0379 21.1494 81.1221 22.4826 81.8847C23.8158 82.6317 25.4084 83.0052 27.2551 83.0052C29.1071 83.0052 30.6893 82.6317 32.0069 81.8847C33.3349 81.1221 34.3516 80.0379 35.0675 78.6321C35.773 77.2107 36.1258 75.53 36.1258 73.5847ZM0 61.8661V82.6161H7.56856C9.65394 82.6161 11.3814 82.2011 12.7509 81.3815C14.1367 80.5523 15.219 79.2992 15.8374 77.8073C16.5118 76.2511 16.8542 74.3732 16.8542 72.1841C16.8542 70.0053 16.517 68.1482 15.8374 66.6075C15.2249 65.132 14.1512 63.8945 12.7768 63.08C11.4125 62.2707 9.67469 61.8661 7.56856 61.8661H0ZM4.10331 65.2121H7.02387C8.31038 65.2121 9.35825 65.4714 10.1831 66.0006C11.0392 66.5605 11.6851 67.3889 12.0194 68.3557C12.4292 69.3984 12.6316 70.7004 12.6316 72.2619C12.6476 73.2965 12.5291 74.3288 12.2788 75.3329C12.0939 76.1247 11.7477 76.8699 11.2621 77.522C10.8107 78.1037 10.2127 78.5549 9.52944 78.8293C8.72882 79.1288 7.87849 79.2732 7.02387 79.2546H4.09812V65.2069L4.10331 65.2121ZM42.6049 67.7176C42.224 68.7694 42.0428 69.883 42.0706 71.0013V73.5691C42.0706 74.8453 42.247 75.9294 42.6049 76.8217C42.9029 77.6416 43.4418 78.3522 44.1508 78.8604C44.8908 79.3297 45.7546 79.5664 46.6304 79.5399C47.3504 79.5563 48.0637 79.3997 48.7106 79.0834C49.2894 78.7891 49.7784 78.3448 50.1268 77.7969C50.4788 77.2258 50.687 76.5779 50.7337 75.9087H54.7022V76.3029C54.6528 77.5563 54.246 78.7695 53.5298 79.7993C52.8191 80.8057 51.8698 81.589 50.6767 82.1544C49.3984 82.7397 48.005 83.0304 46.5993 83.0052C44.7318 83.0052 43.1548 82.6317 41.8579 81.8847C40.5632 81.1265 39.53 79.992 38.8959 78.6321C38.2215 77.2211 37.8895 75.5352 37.8895 73.5691V70.9857C37.8895 69.0197 38.2319 67.3286 38.9114 65.9124C39.5858 64.491 40.5766 63.3964 41.8735 62.6287C43.1807 61.8558 44.7577 61.4719 46.5993 61.4719C47.7354 61.4719 48.7832 61.6379 49.7481 61.9751C50.7182 62.2967 51.5638 62.7687 52.2848 63.3861C53.0133 64.0058 53.6045 64.7705 54.0207 65.6316C54.4369 66.4926 54.669 67.431 54.7022 68.3868V68.7655H50.7337C50.6854 68.0684 50.472 67.3927 50.1112 66.7943C49.7722 66.2217 49.2823 65.7533 48.6951 65.4403C48.062 65.0967 47.3506 64.9233 46.6304 64.9371C45.7547 64.9144 44.8936 65.1646 44.1664 65.653C43.455 66.1735 42.9121 66.8914 42.6049 67.7176Z" fill="white"/>
</svg>
